<svg width="99" height="99" viewBox="0 0 99 99" fill="none" xmlns="http://www.w3.org/2000/svg">
<path d="M0 0V98.244H98.25V0H0Z" fill="#C10B25"/>
<path d="M15.8371 60.8319C15.8371 64.3459 15.6201 68.8019 13.8091 68.8019C12.7581 68.8019 12.4691 68.0039 12.1771 67.2049C11.8891 66.4439 11.5631 65.6499 10.3651 65.6499C9.38906 65.6499 8.37305 66.4439 8.55405 67.4959C8.88105 69.4539 10.8021 70.2149 12.6131 70.2149C17.4651 70.2149 19.0931 65.2159 19.0931 61.0869V39.4989C19.0931 37.8319 20.2171 37.6869 21.6671 37.5809L22.6441 37.5069L22.7901 37.2889V36.5649L22.6081 36.3829C21.1581 36.3829 18.9861 36.5649 17.1751 36.5649C14.7141 36.5649 13.5521 36.3829 12.5741 36.3829C12.3561 36.3829 12.0301 36.4189 11.9931 36.8199V37.3969L12.1751 37.5809C15.2161 37.5809 15.8351 38.0879 15.8351 40.1499V60.8319H15.8371ZM49.2331 54.0609C49.2331 52.1769 49.7041 51.9579 51.4401 51.9579H51.8761C52.0611 51.9579 52.1311 51.5249 52.1311 51.1609C52.1311 50.9809 52.1681 50.6909 51.9131 50.6909H41.4471C41.1201 50.6909 41.0791 51.0539 41.0791 51.5249C41.0791 51.8859 41.1541 52.1029 41.3341 52.1029H44.0141C45.5391 52.1029 46.4851 52.6469 46.4851 54.4589V56.9559C46.4851 59.1659 44.2691 61.0489 39.9941 61.0489C34.3461 61.0489 29.6031 55.4729 29.6031 49.1349C29.6031 40.4409 36.3001 37.2879 40.5721 37.2879C45.3521 37.2879 47.5671 40.0409 48.0351 42.7939C48.0751 42.9399 48.2531 42.9399 48.4691 42.9399C48.6541 42.9399 49.2351 42.8299 49.2351 42.6139C49.2351 41.0189 49.0501 38.1589 48.9801 37.8709C46.8081 36.7459 44.2701 35.8779 40.9051 35.8779C36.7341 35.8779 25.5461 38.0499 25.5461 49.7849C25.5461 55.2899 30.1441 62.4579 40.5391 62.4579C42.2031 62.4579 46.4421 61.9539 49.2351 60.2149V54.0609H49.2331Z" fill="white"/>
<path d="M88.052 36.366H84.364V50.987C84.364 55.933 82.815 59.331 78.047 59.331C73.288 59.331 71.742 55.934 71.742 50.987V36.366H68.045V51.466C68.045 58.704 71.702 62.577 78.047 62.577C84.401 62.577 88.053 58.704 88.053 51.466V36.366H88.052Z" fill="white"/>
<path d="M58.938 18.174V79.139H60.901V18.174H58.938Z" fill="white"/>
</svg>
