<svg width="99" height="99" viewBox="0 0 99 99" fill="none" xmlns="http://www.w3.org/2000/svg">
<path d="M0 0V98.244H98.25V0H0Z" fill="#C10B25"/>
<path d="M15.8371 60.832C15.8371 64.346 15.6201 68.802 13.8091 68.802C12.7581 68.802 12.4691 68.004 12.1771 67.205C11.8891 66.444 11.5631 65.65 10.3651 65.65C9.38906 65.65 8.37305 66.444 8.55405 67.496C8.88105 69.454 10.8021 70.215 12.6131 70.215C17.4651 70.215 19.0931 65.216 19.0931 61.087V39.499C19.0931 37.832 20.2171 37.687 21.6671 37.581L22.6441 37.507L22.7901 37.289V36.565L22.6081 36.383C21.1581 36.383 18.9861 36.565 17.1751 36.565C14.7141 36.565 13.5521 36.383 12.5741 36.383C12.3561 36.383 12.0301 36.419 11.9931 36.82V37.397L12.1751 37.581C15.2161 37.581 15.8351 38.088 15.8351 40.15V60.832H15.8371ZM49.2331 54.061C49.2331 52.177 49.7041 51.958 51.4401 51.958H51.8761C52.0611 51.958 52.1311 51.525 52.1311 51.161C52.1311 50.981 52.1681 50.691 51.9131 50.691H41.4471C41.1201 50.691 41.0791 51.054 41.0791 51.525C41.0791 51.886 41.1541 52.103 41.3341 52.103H44.0141C45.5391 52.103 46.4851 52.647 46.4851 54.459V56.956C46.4851 59.166 44.2691 61.049 39.9941 61.049C34.3461 61.049 29.6031 55.473 29.6031 49.135C29.6031 40.441 36.3001 37.288 40.5721 37.288C45.3521 37.288 47.5671 40.041 48.0351 42.794C48.0751 42.94 48.2531 42.94 48.4691 42.94C48.6541 42.94 49.2351 42.83 49.2351 42.614C49.2351 41.019 49.0501 38.159 48.9801 37.871C46.8081 36.746 44.2701 35.878 40.9051 35.878C36.7341 35.878 25.5461 38.05 25.5461 49.785C25.5461 55.29 30.1441 62.458 40.5391 62.458C42.2031 62.458 46.4421 61.954 49.2351 60.215V54.061H49.2331Z" fill="white"/>
<path d="M88.052 36.366H84.364V50.987C84.364 55.933 82.815 59.331 78.047 59.331C73.288 59.331 71.742 55.934 71.742 50.987V36.366H68.045V51.466C68.045 58.704 71.702 62.577 78.047 62.577C84.401 62.577 88.053 58.704 88.053 51.466V36.366H88.052Z" fill="white"/>
<path d="M58.938 18.174V79.139H60.901V18.174H58.938Z" fill="white"/>
</svg>
