<svg width="220" height="200" viewBox="0 0 220 200" fill="none" xmlns="http://www.w3.org/2000/svg">
<path d="M170.709 29.2941C152.643 11.2031 127.595 -0.00273351 100 8.62726e-07C79.0133 -0.00273351 59.4664 6.49453 43.3773 17.5633C35.7328 22.8184 28.877 29.1078 22.9828 36.2L22.9813 36.2031C8.62422 53.4945 -0.00312415 75.7812 8.48664e-07 99.9973C-0.00312415 124.659 8.95703 147.305 23.7793 164.734C38.5957 182.169 59.3109 194.467 82.8551 198.535C85.1914 198.938 87.5578 199.261 89.9535 199.493C93.277 199.838 96.6309 200 100 200C127.595 200.003 152.643 188.791 170.709 170.706C188.797 152.628 200.003 127.585 200 99.9973C200.003 72.409 188.797 47.3664 170.709 29.2941ZM81.2543 184.323C62.5746 180.191 46.1547 170.004 34.1691 155.902C21.3562 140.817 13.6398 121.341 13.6367 99.9969C13.6383 88.6016 15.8508 77.7434 19.8484 67.7945V69.6805C19.8484 70.5777 21.182 71.0141 22.3039 71.6793C23.1063 72.1644 22.7434 75.6801 22.9707 78.1187C23.1824 80.5723 26.5152 86.3492 27.6367 86.1203C28.743 85.907 24.9695 77.243 24.9695 77.243C24.9695 77.243 24.7422 74.1211 26.0758 74.1211C27.4094 74.1211 27.182 77.243 27.6367 79.2422C28.075 81.241 31.4102 84.7871 32.2891 85.6812C33.1816 86.5602 32.2891 90.573 32.5164 91.2445C32.7422 91.9098 40.7422 96.5609 41.4094 96.7863C42.0742 97.0121 44.0766 96.3469 45.1813 96.5605C46.2875 96.7863 46.5164 99.2246 47.409 99.6793C48.2879 100.122 52.2871 100.35 53.1812 100.558C54.0602 100.787 54.0602 104.12 55.182 104.788C56.2883 105.454 59.848 109.015 59.848 109.015C59.848 109.015 62.5141 107.452 63.182 107.001C63.8473 106.561 65.1828 107.895 65.1828 107.895C65.1828 107.895 65.3934 113.681 65.3934 114.786C65.3934 115.894 61.1816 119.455 61.1816 119.455C61.1816 119.455 60.9543 125.229 61.1816 127.454C61.3937 129.666 66.0613 135.001 66.0613 135.001C66.0613 135.001 67.6207 139.213 68.0605 139.893C68.5152 140.558 76.0605 146.103 76.0605 146.103C76.0605 146.103 76.0605 157.663 76.0605 159.879C76.0605 162.107 77.6215 163.001 77.6215 164.334V173.654C77.6215 176.544 80.0613 178.107 80.9555 179.651C81.5582 180.725 81.2332 182.428 81.2543 184.323ZM161.075 161.066C145.422 176.703 123.874 186.362 100 186.365C97.0656 186.365 94.1789 186.222 91.3527 185.932L91.2687 185.92L91.3008 185.923C90.5852 185.858 89.868 185.764 89.1539 185.675C89.0285 185.455 88.9387 185.178 88.9387 184.76C88.9387 182.755 89.8344 182.755 90.0602 181.211C90.2738 179.651 87.8324 179.215 89.6207 178.772C91.3938 178.32 91.1664 175.879 90.9391 175.211C90.727 174.545 93.6062 175.439 95.1656 174.313C96.7266 173.212 96.2719 170.102 95.8324 168.985C95.393 167.877 96.9387 168.985 97.6055 169.211C98.2719 169.436 99.8316 167.441 100.271 165.649C100.727 163.879 103.832 157.876 103.605 156.543C103.395 155.215 106.727 153 108.938 152.545C111.164 152.105 111.834 151.44 112.713 148.544C113.606 145.666 114.045 140.771 113.833 138.773C113.605 136.77 118.938 131.439 118.938 129.44C118.938 127.454 117.379 125.894 115.379 124.557C113.379 123.227 108.938 123.227 107.831 122.998C106.727 122.788 106.045 120.789 104.271 120.56C102.5 120.334 100.939 121.896 98.9367 121.454C96.9379 121.002 97.832 119.455 99.1656 118.561C100.499 117.667 98.9367 114.335 97.6047 112.33C96.2711 110.349 93.6055 110.559 91.393 110.785C89.1668 111.014 88.727 108.347 86.498 105.683C84.2867 103.013 80.4996 103.891 78.7266 103.678C76.9523 103.455 74.2863 101.453 72.7254 101.224C71.166 101.016 67.3941 106.348 66.5152 106.561C65.6211 106.787 65.3926 105.228 64.0586 104.789C62.7266 104.349 62.0598 107.001 59.6215 105.683C57.1816 104.349 58.9547 99.4539 58.9547 97.0129C58.9547 94.559 56.9543 97.4555 54.2883 96.5613C51.6195 95.6824 53.3926 93.8938 54.7281 91.6813C56.0602 89.4566 56.2875 88.3488 53.8492 88.7852C51.4078 89.243 50.9531 87.9063 50.7426 89.6824C50.5137 91.4523 49.409 93.4543 46.0762 93.2438C42.7422 93.0148 42.2875 89.9082 42.2875 87.4516C42.2875 85.0164 42.9527 85.0164 44.5152 81.9098C46.0762 78.7879 47.4082 78.7879 48.9539 77.909C50.5133 77.0176 50.7422 78.1195 52.0594 77.909C53.393 77.6832 53.393 77.0176 53.8492 75.907C54.2887 74.8023 54.9555 76.1391 58.7262 76.1391C62.5133 76.1391 61.2422 76.5602 61.2422 76.5602C61.2422 76.5602 59.9086 79.2273 63.0152 82.7734C66.1207 86.3195 66.1207 79.6668 66.1207 76.5602C66.1207 73.4563 67.4543 72.5594 70.5594 70.3469C73.6676 68.1371 74.107 65.0305 77.6516 62.8211C81.1961 60.5902 88.7277 57.9383 90.9539 56.1684C93.1668 54.3953 89.6203 49.952 92.727 49.073C95.8324 48.1816 99.377 48.1816 102.925 46.848C106.469 45.5301 105.137 43.3051 103.364 42.4262C101.59 41.5289 102.925 37.5465 101.59 36.216C100.256 34.8762 98.0453 36.6527 94.9398 37.5465C91.8332 38.4254 93.6063 31.3332 89.1813 32.227C84.7426 33.1059 86.0742 41.0926 83.8633 41.0926C81.6355 41.0926 82.0902 43.3051 79.8625 45.5145C77.6516 47.7391 76.318 45.5145 78.091 41.9836C79.8625 38.425 76.3184 39.3164 72.7734 38.877C69.2258 38.425 68.7863 36.6523 74.5465 33.1059C80.302 29.5598 87.4098 29.1203 90.4992 25.5738C93.6062 22.0309 86.5137 24.6797 85.6348 23.3492C84.7422 22.0309 82.9691 21.5762 79.8621 23.3492C76.757 25.1375 73.2125 25.1375 69.2254 25.5738C66.6086 25.8637 62.8426 24.8141 59.3043 23.8102C71.4324 17.3188 85.2723 13.6383 100 13.6352C123.874 13.6383 145.422 23.2937 161.075 38.9375C176.706 54.5836 186.358 76.132 186.364 99.9973C186.359 123.868 176.706 145.41 161.075 161.066Z" fill="url(#paint0_linear_28_32)"/>
<path d="M84 87.7949C84 120.863 111.332 138.484 131.34 154.257C138.4 159.823 145.2 165.063 152 165.063C158.8 165.063 165.6 159.823 172.66 154.257C192.668 138.484 220 120.863 220 87.7949C220 54.7269 182.599 31.2758 152 63.0669C121.401 31.2758 84 54.7269 84 87.7949Z" fill="url(#paint1_linear_28_32)"/>
<path d="M138.771 96.5689C139.376 95.7228 139.88 95.0203 140.328 94.419C140.707 95.064 141.13 95.8154 141.638 96.7203L153.211 117.29C154.334 119.288 155.436 121.248 156.543 122.67C157.727 124.192 159.808 126.277 163.145 126.338C166.481 126.399 168.641 124.392 169.883 122.915C171.043 121.535 172.219 119.616 173.419 117.661L173.794 117.051C175.288 114.616 176.228 113.094 177.06 111.995C177.828 110.981 178.271 110.651 178.602 110.468C178.932 110.285 179.45 110.084 180.733 109.962C182.126 109.83 183.945 109.824 186.849 109.824H192.271C195.074 109.824 197.346 107.603 197.346 104.863C197.346 102.123 195.074 99.9014 192.271 99.9014H186.629C184.01 99.9014 181.693 99.9014 179.751 100.086C177.646 100.286 175.597 100.729 173.601 101.834C171.605 102.938 170.162 104.429 168.904 106.09C167.742 107.624 166.551 109.566 165.203 111.762L164.882 112.286C164.295 113.242 163.805 114.038 163.368 114.722C162.957 114.023 162.499 113.209 161.948 112.232L150.382 91.6719C149.339 89.8172 148.3 87.9694 147.246 86.6148C146.095 85.1349 144.121 83.1781 140.958 83.0112C137.794 82.8442 135.616 84.5818 134.309 85.9319C133.112 87.1677 131.875 88.8955 130.634 90.6296L128.541 93.5531C127.004 95.6997 126.04 97.0372 125.206 98.0016C124.438 98.89 124.012 99.1804 123.697 99.3412C123.382 99.5012 122.893 99.6765 121.709 99.7824C120.422 99.8968 118.749 99.9014 116.069 99.9014H111.075C108.272 99.9014 106 102.123 106 104.863C106 107.603 108.272 109.824 111.075 109.824H116.272C118.688 109.824 120.829 109.824 122.632 109.663C124.588 109.488 126.496 109.103 128.384 108.142C130.272 107.181 131.689 105.874 132.957 104.407C134.126 103.056 135.354 101.341 136.739 99.4066L138.771 96.5689Z" fill="#FBC00F"/>
<defs>
<linearGradient id="paint0_linear_28_32" x1="100" y1="0" x2="100" y2="200" gradientUnits="userSpaceOnUse">
<stop offset="0.293483" stop-color="#E93028"/>
<stop offset="0.599989" stop-color="#FBC00F"/>
</linearGradient>
<linearGradient id="paint1_linear_28_32" x1="152" y1="48" x2="152" y2="165.063" gradientUnits="userSpaceOnUse">
<stop stop-color="#E93028"/>
<stop offset="1" stop-color="#FBC00F"/>
</linearGradient>
</defs>
</svg>
